<svg xmlns="http://www.w3.org/2000/svg" width="48" height="48" viewBox="0 0 48 48" fill="none">
  <rect width="48" height="48" rx="12" fill="#FF6B35"/>
  <path d="M34 20C34 15.5817 30.4183 12 26 12H22C17.5817 12 14 15.5817 14 20V32C14 33.1046 14.8954 34 16 34H32C33.1046 34 34 33.1046 34 32V20Z" fill="white" fill-opacity="0.95"/>
  <path d="M20 12V8C20 7.44772 20.4477 7 21 7H27C27.5523 7 28 7.44772 28 8V12" stroke="white" stroke-width="2" stroke-linecap="round"/>
  <rect x="18" y="20" width="12" height="8" rx="1" fill="#FF6B35"/>
  <path d="M22 28V34" stroke="#FF6B35" stroke-width="1.5"/>
  <path d="M26 28V34" stroke="#FF6B35" stroke-width="1.5"/>
</svg>
